PathFileType	4	(X/Y/Z)	./resultDataOpenSim/trcMotMarkerGrf/sub09/qtm-03-07.trc
DataRate	CameraRate	NumFrames	NumMarkers	Units	OrigDataRate	OrigDataStartFrame	OrigNumFrames
250.000000	250.000000	11	24	m	250.000000	430	491
Frame#	Time	L.Toe.Tip			R.Toe.Tip			L.Ankle.Lat			R.Ankle.Lat			L.Ankle.Med			R.Ankle.Med			L.Heel			R.Heel			L.Knee.Lat			R.Knee.Lat			L.Knee.Med			R.Knee.Med			L.Thigh.Upper			R.Thigh.Upper			L.ASIS			R.ASIS			V.Sacral			L.Acromium			R.Acromium			C7			L.Elbow			R.Elbow			L.Wrist.Lat			R.Wrist.Lat
		X1	Y1	Z1	X2	Y2	Z2	X3	Y3	Z3	X4	Y4	Z4	X5	Y5	Z5	X6	Y6	Z6	X7	Y7	Z7	X8	Y8	Z8	X9	Y9	Z9	X10	Y10	Z10	X11	Y11	Z11	X12	Y12	Z12	X13	Y13	Z13	X14	Y14	Z14	X15	Y15	Z15	X16	Y16	Z16	X17	Y17	Z17	X18	Y18	Z18	X19	Y19	Z19	X20	Y20	Z20	X21	Y21	Z21	X22	Y22	Z22	X23	Y23	Z23	X24	Y24	Z24

430	1.716	1.7231952	0.12762593	-0.010304545	1.0254409	0.040866315	0.082404127	1.5723709	0.091770472	-0.03405146	0.88895023	0.094384875	0.12437471	1.5967697	0.12122586	0.056706422	0.91634908	0.13432615	0.03839806	1.5308028	0.0296881	0.021248961	0.8203321	0.098288678	0.071297651	1.4318351	0.4854555	-0.07517267	1.1195132	0.4957588	0.20454168	1.4350748	0.48029901	0.052081202	1.1152617	0.48763924	0.076760511	1.2613972	0.8634324	-0.11414909	1.1872331	0.89250146	0.24658972	1.3273132	0.95615323	-0.04891197	1.3100881	0.96906546	0.19232737	1.1497238	1.0123338	0.046266591	1.2920999	1.4159109	-0.1105958	1.2785767	1.4305662	0.22085522	1.2156832	1.469159	0.053017025	1.1298128	1.0917268	-0.16362906	1.1595134	1.0710528	0.31785153	1.1850276	0.84716241	-0.23178858	1.4109482	0.95062204	0.27609048
431	1.72	1.7264531	0.12341752	-0.0096982446	1.0256485	0.04097124	0.082404938	1.5752235	0.089491854	-0.033459732	0.89007136	0.095874717	0.12517605	1.5998984	0.1188172	0.057301295	0.91771313	0.13559655	0.039126484	1.5328632	0.028020007	0.021848734	0.82131249	0.10067072	0.072388301	1.4394158	0.4850085	-0.075014876	1.1252063	0.49459112	0.20505351	1.4430978	0.48041825	0.052154817	1.1206551	0.48661986	0.077044995	1.2676135	0.86292056	-0.11459988	1.1931255	0.891473	0.24620809	1.3337908	0.95533746	-0.049157219	1.3162205	0.96792026	0.19217233	1.1560585	1.0112377	0.045950737	1.2976337	1.4148943	-0.1109152	1.2840789	1.429519	0.22060517	1.2212508	1.468054	0.052621911	1.1355034	1.0906349	-0.16400713	1.1646316	1.0701607	0.3174456	1.1907414	0.84610936	-0.2322115	1.4161958	0.9490736	0.27619878
432	1.724	1.7293299	0.11913836	-0.0089280811	1.0258654	0.041069468	0.082411657	1.5777636	0.087119735	-0.032882311	0.89121656	0.097426985	0.12596296	1.6025902	0.11624482	0.057911634	0.91921275	0.13693524	0.039860808	1.5344725	0.026308754	0.022299685	0.82242557	0.10318487	0.073421743	1.4468852	0.48448103	-0.074844274	1.1307715	0.49333959	0.20541821	1.4510783	0.48051859	0.052174346	1.12647	0.48558277	0.077600777	1.2737581	0.86249077	-0.11508862	1.1991311	0.89041733	0.24588104	1.3403245	0.95462467	-0.049437035	1.3220898	0.9668115	0.19200893	1.1624641	1.0101453	0.045700928	1.3031924	1.413897	-0.11124756	1.2896198	1.4284741	0.22035187	1.2268896	1.4668862	0.052235023	1.1411869	1.0895252	-0.16446507	1.1696581	1.0692866	0.3170071	1.196554	0.84506171	-0.23260475	1.421408	0.94749645	0.27634275
433	1.728	1.7318861	0.1147563	-0.0079801186	1.0261129	0.04115594	0.082412145	1.5800347	0.084678221	-0.032281935	0.89237532	0.099042398	0.12672046	1.6048793	0.11353288	0.058578302	0.9208486	0.13834563	0.04061419	1.5356428	0.024638635	0.022611648	0.82370069	0.10583156	0.074342506	1.4541821	0.48386744	-0.074646014	1.1363986	0.49213001	0.20576312	1.4589837	0.48058756	0.05211258	1.1325753	0.48450979	0.078324606	1.2798571	0.86211336	-0.11561139	1.205392	0.88924491	0.24562792	1.3469177	0.95399807	-0.049743149	1.3275324	0.96574993	0.19184019	1.168911	1.0090635	0.045496115	1.3087736	1.4129205	-0.11159286	1.2951939	1.4274376	0.22008427	1.2325445	1.4656727	0.051821016	1.1468548	1.0883945	-0.16501549	1.1746585	1.0684443	0.3165501	1.2024706	0.84402159	-0.23296817	1.4264154	0.94592793	0.27655145
434	1.732	1.7342576	0.1101258	-0.006864435	1.0264033	0.041243535	0.082439915	1.5821071	0.082232787	-0.031613965	0.89357914	0.1007422	0.12745623	1.606873	0.11077839	0.059348348	0.92262352	0.13983099	0.041398057	1.5364402	0.023155643	0.022850281	0.82513358	0.10860668	0.075168655	1.4611991	0.48317103	-0.074402675	1.1423685	0.49103061	0.20625097	1.466787	0.48060493	0.051935866	1.1387478	0.48335608	0.079030872	1.2859442	0.86176014	-0.11615952	1.2120439	0.88786384	0.24544466	1.3535723	0.95343535	-0.050058716	1.332727	0.96472069	0.19166036	1.1753822	1.0079966	0.045309512	1.3143733	1.4119688	-0.11194595	1.3008018	1.4264131	0.21979233	1.2381751	1.4644779	0.051403692	1.1525405	1.0872622	-0.16559662	1.1796833	1.0676422	0.3160889	1.2084894	0.84299376	-0.23330567	1.4311091	0.94435024	0.27684111
435	1.736	1.7366953	0.10501466	-0.0055992956	1.0267329	0.041349545	0.082520152	1.5841165	0.079931459	-0.030863434	0.89497562	0.10255568	0.12824389	1.6088112	0.10818122	0.060231789	0.92454111	0.14138625	0.042213118	1.5370282	0.022098515	0.023118788	0.82670799	0.11150896	0.075946022	1.4678747	0.48240567	-0.074160759	1.1488156	0.48998893	0.20692958	1.4744611	0.48053775	0.051616341	1.1448884	0.48207581	0.079627214	1.2920665	0.86140636	-0.11672538	1.2190207	0.88630014	0.24527568	1.3602762	0.95291334	-0.050361408	1.3381401	0.96368078	0.19145676	1.1818845	1.0069527	0.045128817	1.3199923	1.4110428	-0.11229908	1.3064435	1.4253986	0.21947402	1.2437452	1.4633586	0.051019944	1.1582946	1.0861542	-0.1661113	1.1847356	1.0668795	0.31562608	1.2146035	0.84198196	-0.23362093	1.4355423	0.94272068	0.27720019
436	1.74	1.7395194	0.09925419	-0.0042031676	1.0270912	0.041485867	0.082639768	1.5862636	0.077997597	-0.030078594	0.89691547	0.10451204	0.12926186	1.6110432	0.10596941	0.0611546	0.92660264	0.1429982	0.043057893	1.5376429	0.021749777	0.023489195	0.82842026	0.11454358	0.076711694	1.4742504	0.48159161	-0.074038324	1.1556455	0.4889073	0.20773141	1.4819633	0.4803519	0.051159705	1.1511049	0.48065707	0.080194911	1.2982799	0.86103084	-0.11729947	1.2260327	0.88471683	0.24504319	1.3669935	0.9524205	-0.050628686	1.3440721	0.96259701	0.19122634	1.18842	1.0059499	0.044946632	1.3256344	1.4101387	-0.11264969	1.3121131	1.4243981	0.21913478	1.2492465	1.46233	0.050671049	1.1641361	1.0850733	-0.16651803	1.1897996	1.0661487	0.3151542	1.2208105	0.84098431	-0.23391633	1.4399031	0.94100417	0.27759115
437	1.744	1.7429528	0.092979066	-0.0027159167	1.0274735	0.041657598	0.082763981	1.5887396	0.076623154	-0.029370691	0.89981665	0.10663455	0.13069236	1.613861	0.10424565	0.061968781	0.92880921	0.14465557	0.043939985	1.5385043	0.022262298	0.023938382	0.83028247	0.11771337	0.077495569	1.4804195	0.48077028	-0.074130174	1.1626165	0.48774566	0.20855612	1.4892595	0.48003693	0.050626815	1.1575843	0.47914027	0.080876018	1.3046375	0.86061792	-0.11786331	1.232843	0.88325418	0.24471488	1.3736757	0.95196527	-0.050849963	1.3504434	0.96147298	0.19097978	1.194955	1.0050137	0.044744412	1.3313007	1.4092541	-0.11300455	1.3178039	1.4234219	0.2187846	1.2547258	1.4613689	0.050314481	1.1700507	1.0840049	-0.16684625	1.1948501	1.0654312	0.3146522	1.227114	0.83999579	-0.23419402	1.4443411	0.93918785	0.2779792
438	1.748	1.7469335	0.086696079	-0.001235407	1.0278809	0.041855257	0.082884057	1.591634	0.075818581	-0.028873176	0.90364158	0.10890074	0.13245454	1.6172855	0.10291351	0.062539098	0.93116417	0.14635452	0.044876722	1.5397182	0.023503575	0.024324169	0.83231128	0.12101785	0.078333513	1.4864536	0.48002796	-0.074438554	1.169493	0.48651847	0.20931868	1.4963592	0.47963015	0.050110648	1.1643922	0.47759705	0.081680829	1.3111779	0.86016523	-0.11839895	1.2394657	0.88191249	0.24431583	1.3802892	0.95156465	-0.051035553	1.357018	0.96033344	0.19072892	1.2014358	1.0041711	0.044509942	1.3369887	1.4083969	-0.11337537	1.323509	1.4224765	0.21843494	1.260268	1.460457	0.049909562	1.1760146	1.0829395	-0.16715735	1.1998621	1.0647088	0.3140956	1.2335178	0.8390135	-0.23445437	1.4488597	0.9372777	0.27835408
439	1.752	1.751105	0.080991301	9.8442093e-05	1.0283149	0.042050407	0.083042198	1.5949098	0.075377322	-0.028679703	0.90751006	0.11120348	0.13410675	1.6210175	0.10177812	0.062825077	0.93367487	0.14809415	0.045885374	1.5412437	0.025100974	0.024442918	0.83452299	0.12446297	0.079268348	1.492405	0.47949176	-0.074909434	1.1761847	0.48524557	0.20997148	1.5032985	0.47922953	0.049675033	1.1714292	0.4760738	0.082468805	1.3179156	0.85969489	-0.11890436	1.2460537	0.8806101	0.24388507	1.3868268	0.95122694	-0.051214155	1.3636331	0.95920275	0.19047957	1.2078351	1.0034406	0.044261674	1.3426907	1.4075868	-0.11376937	1.3292139	1.4215674	0.21809625	1.2659402	1.4596236	0.049475432	1.1820142	1.0818766	-0.16749512	1.2048616	1.0640017	0.31349656	1.2400208	0.83803811	-0.23469455	1.453381	0.93528553	0.27872609
440	1.756	1.7550351	0.076124699	0.0012060205	1.0287784	0.042220736	0.083279253	1.5984417	0.075020837	-0.028800149	0.91024032	0.1134114	0.13521977	1.6246317	0.10070646	0.062877004	0.9363521	0.14987659	0.046972427	1.5429518	0.026650377	0.024181584	0.83693908	0.12805965	0.08032905	1.4983892	0.47929229	-0.075484431	1.1827938	0.48394221	0.2105235	1.510095	0.47897933	0.049319457	1.1785929	0.47455218	0.083138137	1.324836	0.85925988	-0.11938906	1.2527087	0.87927914	0.2434523	1.3932938	0.95095466	-0.051413664	1.3702332	0.95809945	0.19023216	1.2141671	1.0028198	0.04403139	1.3483975	1.4068457	-0.1141873	1.3348994	1.4207096	0.21777587	1.2717496	1.4589233	0.049061799	1.1880537	1.0808208	-0.1678518	1.2099388	1.0633727	0.3129142	1.2466193	0.83707513	-0.2349118	1.4578429	0.93322074	0.27911323
